<?xml version="1.0" encoding="UTF-8" standalone="no"?>
<!-- Created with Inkscape (http://www.inkscape.org/) -->

<svg
   width="160"
   height="160"
   viewBox="0 0 42.333334 42.333333"
   version="1.1"
   id="svg1"
   xml:space="preserve"
   inkscape:version="1.4 (86a8ad7, 2024-10-11)"
   sodipodi:docname="SCP049-2.svg"
   inkscape:export-filename="ManaBar.png"
   inkscape:export-xdpi="96"
   inkscape:export-ydpi="96"
   xmlns:inkscape="http://www.inkscape.org/namespaces/inkscape"
   xmlns:sodipodi="http://sodipodi.sourceforge.net/DTD/sodipodi-0.dtd"
   xmlns="http://www.w3.org/2000/svg"
   xmlns:svg="http://www.w3.org/2000/svg"><sodipodi:namedview
     id="namedview1"
     pagecolor="#505050"
     bordercolor="#eeeeee"
     borderopacity="1"
     inkscape:showpageshadow="0"
     inkscape:pageopacity="0"
     inkscape:pagecheckerboard="0"
     inkscape:deskcolor="#d1d1d1"
     inkscape:document-units="mm"
     showgrid="true"
     inkscape:zoom="4"
     inkscape:cx="63.5"
     inkscape:cy="80.125"
     inkscape:window-width="1920"
     inkscape:window-height="1009"
     inkscape:window-x="-8"
     inkscape:window-y="-8"
     inkscape:window-maximized="1"
     inkscape:current-layer="layer4"
     showguides="false"><inkscape:grid
       id="grid1"
       units="mm"
       originx="0"
       originy="0"
       spacingx="0.26458333"
       spacingy="0.26458333"
       empcolor="#0099e5"
       empopacity="0.30196078"
       color="#0099e5"
       opacity="0.14901961"
       empspacing="5"
       enabled="true"
       visible="true" /></sodipodi:namedview><defs
     id="defs1"><inkscape:path-effect
       effect="rough_hatches"
       id="path-effect26"
       is_visible="true"
       lpeversion="1.2"
       direction="22.605091,12.84918 , 4.313663,0"
       dist_rdm="75;-1842265752"
       growth="0"
       do_bend="true"
       bender="12.060581,11.617781 , 5,0"
       bottom_edge_variation="0.86280918;802034980"
       top_edge_variation="0.86280918;1"
       bottom_tgt_variation="0;-314202108"
       top_tgt_variation="0;212315988"
       scale_bf="1"
       scale_bb="1"
       scale_tf="1"
       scale_tb="1"
       top_smth_variation="0;-1284071168"
       bottom_smth_variation="0;-1246775696"
       fat_output="true"
       stroke_width_top="1"
       stroke_width_bottom="1"
       front_thickness="1"
       back_thickness="0.25" /><inkscape:path-effect
       effect="sketch"
       id="path-effect25"
       is_visible="true"
       lpeversion="1"
       nbiter_approxstrokes="3.4436416"
       parallel_offset="5;1749814532"
       strokelength="5"
       strokelength_rdm="0.3;1269116390"
       strokeoverlap="0.3"
       strokeoverlap_rdm="0.3;1862139983"
       ends_tolerance="0.1;-1506750164"
       tremble_size="5;1"
       tremble_frequency="1"
       nbtangents="5"
       tgt_places_rdmness="1;1"
       tgtlength="100"
       tgtlength_rdm="0.3;1"
       tgtscale="10" /><inkscape:path-effect
       effect="offset"
       id="path-effect17"
       is_visible="true"
       lpeversion="1.3"
       linejoin_type="round"
       unit="px"
       offset="0"
       miter_limit="4"
       attempt_force_join="false"
       update_on_knot_move="true" /><inkscape:path-effect
       effect="sketch"
       id="path-effect20"
       is_visible="true"
       lpeversion="1"
       nbiter_approxstrokes="5"
       parallel_offset="5;-195578774"
       strokelength="100"
       strokelength_rdm="0.3;1299848077"
       strokeoverlap="0.3"
       strokeoverlap_rdm="0.3;1"
       ends_tolerance="0.1;-483170750"
       tremble_size="5;1"
       tremble_frequency="1"
       nbtangents="5"
       tgt_places_rdmness="1;1"
       tgtlength="100"
       tgtlength_rdm="0.3;1"
       tgtscale="10" /><inkscape:path-effect
       effect="rough_hatches"
       id="path-effect19"
       is_visible="true"
       lpeversion="1.2"
       direction="5.2916667,23.175843 , 4.216797,0"
       dist_rdm="75;1"
       growth="0"
       do_bend="true"
       bender="20.670573,20.505208 , -10.855765,-2.5724692"
       bottom_edge_variation="2.2489583;1"
       top_edge_variation="2.2489583;1"
       bottom_tgt_variation="0;1"
       top_tgt_variation="0;1"
       scale_bf="1"
       scale_bb="1"
       scale_tf="1"
       scale_tb="1"
       top_smth_variation="0;1"
       bottom_smth_variation="0;1"
       fat_output="true"
       stroke_width_top="1"
       stroke_width_bottom="1"
       front_thickness="1"
       back_thickness="0.25" /><inkscape:path-effect
       effect="vonkoch"
       id="path-effect18"
       is_visible="true"
       lpeversion="1"
       ref_path="m 12.236979,20.505208 8.728831,5.238483"
       generator="m 12.236979,31.75 h 5.622396 m 5.622396,0 h 5.622396"
       similar_only="false"
       nbgenerations="1"
       drawall="true"
       maxComplexity="1000"
       ref_path-nodetypes="cc" /><inkscape:path-effect
       effect="slice"
       start_point="13.140254,27.267701"
       end_point="20.670573,31.75"
       center_point="16.905414,29.508851"
       id="path-effect16"
       is_visible="true"
       lpeversion="1.2"
       lpesatellites=""
       allow_transforms="true" /><inkscape:path-effect
       effect="lattice2"
       gridpoint0="12.236979,9.2604167"
       gridpoint1="29.104167,9.2604167"
       gridpoint2="12.236979,31.75"
       gridpoint3="29.104167,31.75"
       gridpoint4="16.453776,9.2604167"
       gridpoint5="24.88737,9.2604167"
       gridpoint6="16.453776,31.75"
       gridpoint7="24.88737,31.75"
       gridpoint8x9="20.670573,9.2604167"
       gridpoint10x11="20.670573,31.75"
       gridpoint12="12.236979,14.882813"
       gridpoint13="29.104167,14.882813"
       gridpoint14="12.236979,26.127604"
       gridpoint15="29.104167,26.127604"
       gridpoint16="15.89251,14.228002"
       gridpoint17="24.88737,14.882813"
       gridpoint18="18.558524,23.508363"
       gridpoint19="16.608696,25.145389"
       gridpoint20x21="20.670573,14.882813"
       gridpoint22x23="22.54146,24.116401"
       gridpoint24x26="12.236979,20.505208"
       gridpoint25x27="29.104167,20.505208"
       gridpoint28x30="14.769978,22.937361"
       gridpoint29x31="24.88737,20.505208"
       gridpoint32x33x34x35="21.933422,22.843817"
       id="path-effect15"
       is_visible="true"
       lpeversion="1"
       horizontal_mirror="false"
       vertical_mirror="false"
       perimetral="false"
       live_update="true" /><inkscape:path-effect
       effect="envelope"
       id="path-effect14"
       is_visible="true"
       lpeversion="1"
       yy="true"
       xx="true"
       bendpath1="M 14.452083,9.2604164 H 29.004167"
       bendpath2="M 29.004167,9.2604164 V 31.75"
       bendpath3="M 14.452083,31.75 H 29.004167"
       bendpath4="M 14.452083,9.2604164 V 31.75" /><inkscape:path-effect
       effect="bend_path"
       id="path-effect13"
       is_visible="true"
       lpeversion="1"
       bendpath="M 12.236979,20.505208 H 29.104167"
       prop_scale="1"
       scale_y_rel="false"
       vertical="false"
       hide_knot="false" /><inkscape:path-effect
       effect="curvestitching"
       id="path-effect12"
       is_visible="true"
       lpeversion="1"
       count="5"
       startpoint_edge_variation="0;1"
       startpoint_spacing_variation="0;1"
       endpoint_edge_variation="0;1"
       endpoint_spacing_variation="0;1"
       strokepath="M 0,0 H 1"
       prop_scale="1"
       scale_y_rel="false" /><inkscape:path-effect
       effect="rough_hatches"
       id="path-effect11"
       is_visible="true"
       lpeversion="1.2"
       direction="20.670573,15.505208 , 4.216797,0"
       dist_rdm="74.9;1"
       growth="0"
       do_bend="true"
       bender="20.670573,20.505208 , 5,0"
       bottom_edge_variation="2.2489583;1"
       top_edge_variation="2.2489583;1"
       bottom_tgt_variation="0;1"
       top_tgt_variation="0;1"
       scale_bf="1"
       scale_bb="1"
       scale_tf="1"
       scale_tb="1"
       top_smth_variation="0;1"
       bottom_smth_variation="0;1"
       fat_output="true"
       stroke_width_top="1"
       stroke_width_bottom="1"
       front_thickness="1"
       back_thickness="0.25" /><pattern
       id="EMFhbasepattern"
       patternUnits="userSpaceOnUse"
       width="6"
       height="6"
       x="0"
       y="0" /><pattern
       id="EMFhbasepattern-1"
       patternUnits="userSpaceOnUse"
       width="6"
       height="6"
       x="0"
       y="0" /><pattern
       id="EMFhbasepattern-8"
       patternUnits="userSpaceOnUse"
       width="6"
       height="6"
       x="0"
       y="0" /><pattern
       id="EMFhbasepattern-5"
       patternUnits="userSpaceOnUse"
       width="6"
       height="6"
       x="0"
       y="0" /><pattern
       id="EMFhbasepattern-88"
       patternUnits="userSpaceOnUse"
       width="6"
       height="6"
       x="0"
       y="0" /></defs><g
     inkscape:groupmode="layer"
     id="layer1"
     inkscape:label="Card"><g
       inkscape:groupmode="layer"
       id="layer6"
       inkscape:label="CARD"
       style="display:none"><path
         style="display:inline;fill:#303841;fill-opacity:1;stroke-width:2.64583;stroke-linecap:round;stroke-linejoin:round;paint-order:stroke markers fill"
         d="M 5.2916663,0 H 31.75 l 5.291664,5.2916664 V 42.333331 H 10.583333 L 5.2916663,37.041665 Z"
         id="path2"
         inkscape:label="BG"
         sodipodi:nodetypes="ccccccc" /><path
         id="path1"
         style="display:inline;fill:#3a4750;fill-opacity:1;stroke-width:2.64583;stroke-linecap:round;stroke-linejoin:round;paint-order:stroke markers fill"
         d="m 5.2916667,0 v 37.041667 l 5.2916663,5.291666 H 37.041667 V 5.2916667 L 31.75,0 Z m 2.6458328,5.2916667 23.8125005,-4e-7 2.645833,2.6458333 -2e-6,23.8124994 H 10.583333 L 7.9374995,29.104165 Z"
         sodipodi:nodetypes="cccccccccccccc" /><path
         style="display:inline;fill:#45535e;fill-opacity:1;stroke-width:2.64583;stroke-linecap:round;stroke-linejoin:round;paint-order:stroke markers fill"
         d="M 5.2916663,2.6458332 7.9374994,0 H 19.843748 L 14.552082,5.2916663 H 7.9374994 v 6.6145827 l -2.6458331,2.645834 z"
         id="path11"
         inkscape:label="shine1" /><path
         style="display:inline;fill:#45535e;fill-opacity:1;stroke-width:2.64583;stroke-linecap:round;stroke-linejoin:round;paint-order:stroke markers fill"
         d="m 7.9374994,39.687497 7.9374996,-7.937498 13.229165,-2e-6 -10.583332,10.583333 h -7.9375 z"
         id="path12"
         sodipodi:nodetypes="cccccc"
         inkscape:label="shine2-1" /><path
         style="display:inline;fill:#45535e;fill-opacity:1;stroke-width:2.64583;stroke-linecap:round;stroke-linejoin:round;paint-order:stroke markers fill"
         d="m 34.39583,26.458332 2.645834,-2.645833 V 10.583333 l -2.645833,2.645833 z"
         id="path13"
         sodipodi:nodetypes="ccccc"
         inkscape:label="shine2-2" /><path
         style="display:inline;fill:#000000;fill-opacity:0.15;stroke-width:2.64583;stroke-linecap:round;stroke-linejoin:round;paint-order:stroke markers fill"
         d="M 9.260416,30.42708 V 6.614583 h 23.812498 l -1.322917,-1.3229167 -23.8124976,3e-7 V 29.104166 Z"
         id="path14"
         inkscape:label="dropshadow" /><path
         style="display:inline;fill:#45535e;fill-opacity:0.25;stroke-width:2.64583;stroke-linecap:round;stroke-linejoin:round;paint-order:stroke markers fill"
         d="m 7.9374994,9.260416 3.9687496,-3.9687497 -3.9687496,3e-7 z"
         id="path15" /><path
         style="display:inline;fill:#45535e;fill-opacity:0.25;stroke-width:2.64583;stroke-linecap:round;stroke-linejoin:round;paint-order:stroke markers fill"
         d="m 26.458332,31.75 -13.229166,-3e-6 21.166664,-21.166664 v 13.229166 z"
         id="path16" /></g><g
       inkscape:groupmode="layer"
       id="layer4"
       inkscape:label="049-2"
       style="display:inline;stroke:none;stroke-opacity:1"
       transform="matrix(1.3800624,0,0,1.3799399,-10.029772,-12.06309)"><path
         style="display:inline;fill:#e66565;fill-opacity:0.145098;stroke:none;stroke-width:1.91727;stroke-linecap:round;stroke-linejoin:round;stroke-opacity:1;paint-order:stroke markers fill"
         id="path25"
         sodipodi:type="arc"
         sodipodi:cx="22.605091"
         sodipodi:cy="17.84918"
         sodipodi:rx="8.627326"
         sodipodi:ry="8.1487532"
         sodipodi:start="0"
         sodipodi:end="6.1490067"
         sodipodi:arc-type="slice"
         inkscape:path-effect="#path-effect26"
         d="m 30.736716,16.812385 c 0,0 0.03034,-1.621273 -0.399465,-2.446837 -0.477671,-0.917503 -0.598499,-0.574674 -0.575893,-0.105642 0.02406,0.499099 0.179016,1.214597 0.349113,1.192759 -0.03051,0.0039 -0.236466,-1.758756 -0.936755,-2.534062 -0.59593,-0.659769 -0.674628,0.06215 -0.632785,0.910152 0.04238,0.858833 0.187713,1.876243 0.301722,1.861612 -0.07156,0.0092 -0.184502,-0.965384 -0.434737,-1.99507 -0.251826,-1.036234 -0.635049,-2.10794 -0.981512,-2.325778 -0.556497,-0.349898 -0.474342,0.882803 -0.379241,2.205017 0.09505,1.321573 0.182197,2.730734 0.183646,2.730549 -0.184667,0.02365 -0.366211,-1.555615 -0.779612,-3.166344 -0.413401,-1.610729 -1.066103,-3.2529187 -1.422077,-3.3551095 -0.56138,-0.1611573 -0.298415,1.5090255 -0.09106,3.2164755 0.207354,1.70745 0.349026,3.452168 0.443363,3.440079 -0.0919,0.01178 -0.224823,-1.645032 -0.583864,-3.309741 -0.359042,-1.664708 -0.946176,-3.3373171 -1.112856,-3.3571421 -0.361216,-0.042963 0.01942,1.7690521 0.224869,3.5937741 0.205448,1.824722 0.232183,3.66215 0.170694,3.670014 -0.248259,0.03175 -0.424698,-1.741905 -0.826046,-3.520098 -0.401347,-1.778193 -1.028834,-3.5609255 -1.220841,-3.5473352 -0.37565,0.026589 0.136379,1.9859522 0.455221,3.9386682 0.319374,1.955982 0.446435,3.898786 0.446435,3.898786 0,0 0.122246,-1.712201 -0.0053,-3.424782 -0.127493,-1.711382 -0.504114,-3.420746 -0.618484,-3.412672 0.06976,-0.0049 0.568702,1.785769 0.902093,3.565776 0.333391,1.780008 0.504142,3.549328 0.878709,3.501657 0.562236,-0.07156 0.850023,-1.878134 0.717283,-3.671508 -0.132739,-1.793373 -0.68253,-3.573542 -0.839369,-3.59228 0.03683,0.0044 0.501572,1.684964 0.799012,3.357506 0.29744,1.672543 0.429608,3.337063 0.646704,3.309377 0.404228,-0.05155 0.576934,-1.717648 0.446234,-3.369876 -0.130699,-1.652229 -0.561405,-3.290592 -0.547921,-3.286678 0.216669,0.06288 0.75004,1.713015 1.1058,3.337545 0.35576,1.62453 0.540129,3.223453 0.85036,3.183908 0.497243,-0.06338 0.717967,-1.286879 0.696613,-2.499726 -0.02135,-1.212848 -0.282909,-2.415047 -0.315197,-2.43584 0.193344,0.124512 0.481298,1.205142 0.699532,2.268061 0.216992,1.056862 0.357832,2.077846 0.55404,2.052787 0.843072,-0.107676 0.526799,-2.666194 0.435419,-2.771764 0.369544,0.426926 0.562358,2.569707 0.841349,2.534062 0.645225,-0.08244 0.6502,-0.295161 0.267709,-1.087117 0.08216,0.170107 0.287133,1.446837 0.287133,1.446837 z m -0.163483,4.16081 c 0,0 0.114396,-0.707 0.151623,-1.413712 0.03723,-0.706856 -0.0027,-1.413712 -0.16081,-1.413712 -0.345626,0 -0.53064,0.86208 -0.630829,1.640787 -0.09969,0.774801 -0.10615,1.477948 0.107031,1.140551 -0.0189,0.02991 0.05117,-0.633406 0.02256,-1.3042 -0.02861,-0.670794 -0.156665,-1.349065 -0.434848,-1.349065 -0.465684,0 -0.72075,1.302989 -0.952393,2.577278 -0.231643,1.274289 -0.434107,2.519879 -0.295539,2.405081 -0.08697,0.07205 0.167187,-1.331103 0.220031,-2.752269 0.05285,-1.421166 -0.09958,-2.860345 -0.384078,-2.860345 -0.472002,0 -0.695561,1.608904 -0.995628,3.217625 -0.300066,1.60872 -0.676596,3.217257 -0.674965,3.216521 -0.208038,0.0938 0.08108,-1.506308 0.142743,-3.129869 0.06166,-1.623562 -0.110022,-3.270574 -0.434965,-3.270574 -0.512442,0 -0.757292,1.804404 -1.094256,3.604303 -0.336964,1.799899 -0.764815,3.595294 -0.665083,3.577278 -0.09715,0.01755 0.315156,-1.714651 0.48452,-3.45124 0.169363,-1.736588 0.09463,-3.477564 -0.06603,-3.477564 -0.348153,0 -0.527321,1.680679 -0.847686,3.361778 -0.320365,1.681099 -0.782032,3.362617 -0.844192,3.364293 -0.250964,0.0068 0.07038,-1.731203 0.177566,-3.470867 0.107187,-1.739663 -2.22e-4,-3.481018 -0.19626,-3.481018 -0.383539,0 -0.56473,1.879457 -0.877744,3.763476 -0.313015,1.884019 -0.759141,3.772601 -0.606066,3.790852 -0.02839,-0.0034 1.031878,-3.866736 0.899773,-7.714306 -0.132105,-3.84757 -1.447372,-7.6793587 -1.751963,-7.6196177 -0.481726,0.094483 0.312232,3.6591607 0.321329,7.2106337 0.0091,3.551472 -0.75974,7.089739 -0.605321,7.131401 -0.02161,-0.0058 0.80269,-3.483232 0.648458,-6.93283 -0.154232,-3.449598 -1.27234,-6.871392 -1.569655,-6.766003 -0.46821,0.165965 0.193056,3.617338 0.08742,7.022646 -0.10564,3.405308 -0.955075,6.764551 -0.992115,6.746256 -0.204355,-0.100937 0.475836,-3.427999 0.360207,-6.713969 -0.115628,-3.28597 -1.006858,-6.530849 -1.112349,-6.467421 -0.268317,0.161331 0.323559,3.204294 0.347491,6.233761 0.02393,3.029467 -0.514197,6.045437 -0.342389,6.152783 0.0065,0.004 0.684382,-3.15674 0.563732,-6.286709 -0.120651,-3.129968 -1.025059,-6.229135 -1.202923,-6.101896 -0.336715,0.240878 0.180437,3.212607 0.160975,6.13709 -0.01946,2.924484 -0.555773,5.801722 -0.492624,5.853618 -0.09796,-0.0805 0.404554,-2.976335 0.251561,-5.789708 -0.152992,-2.813373 -0.925503,-5.544287 -1.159446,-5.294955 -0.345095,0.367795 -0.154226,2.830498 -0.192727,5.079308 -0.03925,2.292509 -0.324846,4.502219 -0.263058,4.582519 -0.09585,-0.124565 0.145023,-2.298473 0.02407,-4.36531 -0.119928,-2.049338 -0.559276,-4.044098 -0.737004,-3.722875 -0.299914,0.542061 -0.342658,1.926372 -0.361177,3.155209 -0.01867,1.239057 -0.01107,2.441969 0.09509,2.67233 -0.05272,-0.114413 -0.02739,-1.228324 -0.106217,-2.150105 -0.08166,-0.954895 -0.234594,-1.618313 -0.370396,-0.997317 -0.587184,2.685064 -0.203225,2.296845 -0.203225,2.296845 0,0 0.138962,-0.562776 0.226862,-1.005436 0.104235,-0.52492 0.116446,-0.685723 0.01537,-0.291409 0.05057,-0.197271 0.09919,0.40295 0.142105,1.15658 0.0415,0.728895 0.0746,1.656675 0.21601,1.990842 0.295237,0.697687 0.677289,-0.79482 0.755271,-2.479894 0.07724,-1.669093 -0.189901,-3.482812 -0.269776,-3.347645 0.07574,-0.128168 0.366329,1.763307 0.408767,3.75211 0.04244,1.988803 -0.191454,4.074933 -3.49e-4,4.336075 0.354814,0.484845 1.049146,-1.978755 1.18452,-4.497109 0.136386,-2.537193 -0.344542,-5.185653 -0.364973,-5.164718 0.137826,-0.141225 0.725852,2.545556 0.772308,5.309835 0.04645,2.76428 -0.480762,5.606058 -0.281753,5.774828 0.35513,0.301169 1.325704,-2.727588 1.462359,-5.816097 0.136655,-3.088509 -0.590036,-6.23677 -0.679267,-6.174611 0.0739,-0.05148 0.78285,3.013249 0.78561,6.107058 0.0028,3.09381 -0.714188,6.216701 -0.612843,6.281547 0.262812,0.16816 1.229673,-2.978347 1.323815,-6.141959 0.09414,-3.163611 -0.692928,-6.344327 -0.862571,-6.244585 -0.0031,0.0018 0.689276,3.219172 0.681131,6.475052 -0.0081,3.255879 -0.735284,6.550306 -0.42526,6.706338 0.474226,0.238673 1.75251,-3.201338 1.994839,-6.702125 0.242329,-3.500787 -0.584409,-7.062349 -0.57175,-7.066777 0.185834,-0.06501 1.103459,3.340959 1.1273,6.772546 0.02384,3.431586 -0.8594,6.888797 -0.721855,6.926287 0.311783,0.08498 1.494861,-3.49961 1.623527,-7.105904 0.128666,-3.606295 -0.809003,-7.234294 -0.799566,-7.236131 0.187878,-0.03658 1.290871,3.787997 1.277416,7.626171 -0.01345,3.838174 -1.151235,7.689944 -1.002539,7.707753 0.329345,0.03944 1.101682,-1.849137 1.49123,-3.747581 0.389547,-1.898443 0.393457,-3.806747 0.276995,-3.806747 0.07104,0 0.05028,1.743053 -0.122714,3.483564 -0.17299,1.740512 -0.497542,3.478483 -0.120325,3.468321 0.566213,-0.01525 1.34011,-1.696771 1.722556,-3.374476 0.382447,-1.677704 0.374401,-3.351595 0.222554,-3.351595 0.03565,0 -0.01853,1.752831 -0.25546,3.495348 -0.236928,1.742516 -0.653863,3.474717 -0.423898,3.433456 0.428191,-0.07683 1.165525,-1.872224 1.56154,-3.648412 0.396016,-1.776188 0.455739,-3.533169 0.468181,-3.533169 0.199943,0 0.245132,1.678525 0.116993,3.317842 -0.128139,1.639318 -0.419465,3.239429 -0.06574,3.082601 0.587472,-0.260463 1.23184,-1.850803 1.573953,-3.405597 0.34011,-1.545695 0.366879,-3.028549 0.338881,-3.028549 0.159502,0 0.191613,1.501461 0.07587,2.953769 -0.1162,1.458038 -0.360729,2.84973 -0.123133,2.658845 0.492451,-0.395634 0.9425,-1.616882 1.189765,-2.778777 0.244675,-1.149724 0.280066,-2.203582 0.24575,-2.203582 0.153183,0 0.184935,0.799405 0.176961,1.530766 -0.008,0.729843 -0.0478,1.396194 0.135432,1.122499 0.851028,-1.271156 0.937263,-2.781338 0.628513,-2.781338 0.06625,0 0.03918,1.827424 0.03918,1.827424 z"
         transform="translate(0.03677163,3.9454139)" /><path
         style="fill:#cc6100;fill-opacity:1;stroke-width:2.20491;stroke-linecap:round;stroke-linejoin:round;paint-order:stroke markers fill"
         d="m 17.24752,17.529818 7.171796,-1.754026 2.494538,0.740588 3.27408,3.118269 -2.406689,12.11535 -9.756592,-2e-6 3.141955,-8.819793 -0.84184,-2.753599 z"
         id="path4"
         sodipodi:nodetypes="ccccccccc"
         inkscape:label="body" /><path
         style="display:inline;fill:#c9b398;fill-opacity:1;stroke:none;stroke-width:2.20491;stroke-linecap:round;stroke-linejoin:round;stroke-opacity:1;paint-order:stroke markers fill"
         id="path3"
         sodipodi:type="arc"
         sodipodi:cx="19.578558"
         sodipodi:cy="16.959709"
         sodipodi:rx="3.3073206"
         sodipodi:ry="3.3074229"
         sodipodi:start="0"
         sodipodi:end="6.2830886"
         sodipodi:open="true"
         sodipodi:arc-type="arc"
         d="m 22.885879,16.959709 a 3.3073206,3.3074229 0 0 1 -3.307241,3.307423 3.3073206,3.3074229 0 0 1 -3.307401,-3.307263 3.3073206,3.3074229 0 0 1 3.307081,-3.307583 3.3073206,3.3074229 0 0 1 3.307561,3.307103" /><path
         style="fill:#8d4400;fill-opacity:1;stroke-width:2.20491;stroke-linecap:round;stroke-linejoin:round;paint-order:stroke markers fill"
         d="m 20.693719,24.257652 -3.33053,-0.996705 0.881952,2.370319 1.738591,0.619393 z"
         id="path5"
         inkscape:label="armRIght" /><path
         style="fill:#8d4400;fill-opacity:1;stroke-width:2.20491;stroke-linecap:round;stroke-linejoin:round;paint-order:stroke markers fill"
         d="m 26.913854,16.51638 5.277155,1.177071 -1e-6,4.823324 -2.93215,1.794875 -0.967905,-2.434907 3.051342,-1.085673 -1.154361,-1.156421 z"
         id="path6"
         inkscape:label="armLeft"
         sodipodi:nodetypes="cccccccc" /><path
         style="fill:#c9b398;fill-opacity:1;stroke-width:2.20491;stroke-linecap:round;stroke-linejoin:round;paint-order:stroke markers fill"
         d="m 26.292955,22.5719 -0.909513,1.653712 -0.137805,-0.661485 -0.661464,1.708835 -0.110244,1.18516 0.440976,-0.661484 -0.110244,1.626149 1.240245,-1.791521 0.05512,0.661485 0.771709,-1.984454 -0.744148,0.275619 z"
         id="path7"
         inkscape:label="wound1skinć" /><path
         style="fill:#ba1414;fill-opacity:1;stroke-width:2.20491;stroke-linecap:round;stroke-linejoin:round;paint-order:stroke markers fill"
         d="m 25.114519,26.522417 0.01614,-1.207706 -0.216857,0.146288 0.02255,-0.343258 0.215185,-0.726185 0.249029,0.395611 0.50054,-0.881405 -0.06723,1.057906 0.542169,-0.148247 -0.185261,0.500675 -0.274917,0.03552 z"
         id="path8"
         sodipodi:nodetypes="cccccccccccc"
         inkscape:label="wound1wound" /><path
         style="fill:#ba1414;fill-opacity:1;stroke-width:2.20491;stroke-linecap:round;stroke-linejoin:round;paint-order:stroke markers fill"
         d="m 18.525549,19.035335 0.27561,0.179152 -0.234268,0.937104 0.330732,0.261837 0.303171,-0.399647 -0.220488,-0.785513 0.151585,-0.30318 z"
         id="path9" /><path
         style="fill:#c9b398;fill-opacity:1;stroke-width:2.20491;stroke-linecap:round;stroke-linejoin:round;paint-order:stroke markers fill"
         d="m 17.363189,23.260947 -1.350489,-0.826856 -0.08268,0.606361 -0.716587,0.192933 0.661465,2.590814 h 1.10244 l 1.267806,-0.192933 z"
         id="path10" /><path
         style="fill:#c9b398;fill-opacity:1;stroke-width:2.20491;stroke-linecap:round;stroke-linejoin:round;paint-order:stroke markers fill"
         d="m 28.290952,21.876743 -1.584581,-0.04901 0.220488,0.633923 -0.523659,0.716608 1.240245,1.901768 0.661464,-0.578799 0.953948,-0.18958 z"
         id="path17" /><path
         id="path18"
         style="fill:#000000;fill-opacity:1;stroke-width:2.20491;stroke-linecap:round;stroke-linejoin:round;paint-order:stroke markers fill"
         d="m 23.873616,20.686927 -2.026596,0.545639 0.38973,1.559398 -0.701944,2.689434 2.33881,0.03919 1.636865,-2.416831 z m -0.350972,0.701535 1.091674,1.676106 -1.013729,1.871192 -1.325081,0.07795 0.623568,-2.182985 -0.428488,-1.091278 z" /><path
         style="fill:#000000;fill-opacity:1;stroke-width:2.20491;stroke-linecap:round;stroke-linejoin:round;paint-order:stroke markers fill"
         d="m 21.106258,26.105056 1.676018,-0.07796 v 0.545697 h -1.676018 z"
         id="path19" /><path
         style="fill:#000000;fill-opacity:1;stroke-width:2.20491;stroke-linecap:round;stroke-linejoin:round;paint-order:stroke markers fill"
         d="m 23.444887,26.105056 0.07795,0.506719 1.348164,-0.167607 0.02634,-0.38847 -0.14843,-0.01006 -0.274987,0.412488 0.03646,-0.391929 z"
         id="path20"
         sodipodi:nodetypes="cccccccc" /><path
         style="fill:#000000;fill-opacity:1;stroke-width:2.20491;stroke-linecap:round;stroke-linejoin:round;paint-order:stroke markers fill"
         d="m 21.963756,26.884623 1.646784,0.01949 -0.263096,0.516463 -1.607807,-0.155913 z"
         id="path21" /><path
         style="fill:#ba1414;fill-opacity:1;stroke-width:2.20491;stroke-linecap:round;stroke-linejoin:round;paint-order:stroke markers fill"
         d="m 15.427643,24.072398 0.433471,0.24968 0.09646,0.606361 0.661464,0.551237 0.81305,-0.02756 0.179149,0.275619 -0.633903,0.09647 -0.124028,0.303181 0.179147,0.482333 -0.192927,0.220494 -0.206708,-0.165371 -0.01378,-0.482332 -0.192924,-0.358305 h -0.55122 z"
         id="path22" /><path
         style="fill:#ba1414;fill-opacity:1;stroke-width:2.20491;stroke-linecap:round;stroke-linejoin:round;paint-order:stroke markers fill"
         d="m 26.4032,23.178264 0.468537,-3e-6 0.220488,0.496113 0.592561,0.05512 0.44549,0.924544 -0.486831,0.42599 z"
         id="path23" /><path
         style="fill:#ba1414;fill-opacity:1;stroke-width:2.20491;stroke-linecap:round;stroke-linejoin:round;paint-order:stroke markers fill"
         d="M 10.142205,9.7005114 32.191009,31.749997"
         id="path24" /></g></g></svg>
