<?xml version="1.0" encoding="UTF-8" standalone="no"?>
<!-- Created with Inkscape (http://www.inkscape.org/) -->

<svg
   width="30"
   height="30"
   viewBox="0 0 7.9375002 7.9374998"
   version="1.1"
   id="svg1"
   xml:space="preserve"
   inkscape:version="1.4 (86a8ad7, 2024-10-11)"
   sodipodi:docname="Cross.svg"
   inkscape:export-filename="ManaBar.png"
   inkscape:export-xdpi="96"
   inkscape:export-ydpi="96"
   xmlns:inkscape="http://www.inkscape.org/namespaces/inkscape"
   xmlns:sodipodi="http://sodipodi.sourceforge.net/DTD/sodipodi-0.dtd"
   xmlns="http://www.w3.org/2000/svg"
   xmlns:svg="http://www.w3.org/2000/svg"><sodipodi:namedview
     id="namedview1"
     pagecolor="#505050"
     bordercolor="#eeeeee"
     borderopacity="1"
     inkscape:showpageshadow="0"
     inkscape:pageopacity="0"
     inkscape:pagecheckerboard="0"
     inkscape:deskcolor="#d1d1d1"
     inkscape:document-units="mm"
     showgrid="true"
     inkscape:zoom="22.627417"
     inkscape:cx="14.407301"
     inkscape:cy="13.236155"
     inkscape:window-width="1920"
     inkscape:window-height="1009"
     inkscape:window-x="-8"
     inkscape:window-y="-8"
     inkscape:window-maximized="1"
     inkscape:current-layer="layer1"><inkscape:grid
       id="grid1"
       units="mm"
       originx="0"
       originy="0"
       spacingx="0.26458333"
       spacingy="0.26458333"
       empcolor="#0099e5"
       empopacity="0.30196078"
       color="#0099e5"
       opacity="0.14901961"
       empspacing="5"
       enabled="true"
       visible="true" /></sodipodi:namedview><defs
     id="defs1"><pattern
       id="EMFhbasepattern"
       patternUnits="userSpaceOnUse"
       width="6"
       height="6"
       x="0"
       y="0" /><pattern
       id="EMFhbasepattern-1"
       patternUnits="userSpaceOnUse"
       width="6"
       height="6"
       x="0"
       y="0" /><pattern
       id="EMFhbasepattern-8"
       patternUnits="userSpaceOnUse"
       width="6"
       height="6"
       x="0"
       y="0" /><pattern
       id="EMFhbasepattern-5"
       patternUnits="userSpaceOnUse"
       width="6"
       height="6"
       x="0"
       y="0" /></defs><g
     inkscape:groupmode="layer"
     id="layer1"
     inkscape:label="a"
     style="opacity:0.5"><g
       inkscape:groupmode="layer"
       id="layer2"
       inkscape:label="a" /><path
       style="display:none;fill:#eeeeee;stroke-width:2.64583;stroke-linecap:round;stroke-linejoin:round;paint-order:stroke markers fill"
       d="M 2.6458331,3.96875 6.6145827,0 H 7.9374994 V 1.3229166 L 3.9687497,5.2916663 5.2916661,6.614583 H 2.6458331 L 1.3229165,7.9374996 H 0 V 6.614583 L 1.3229165,5.2916663 V 2.6458332 Z"
       id="path2" /><path
       style="display:none;opacity:1;fill:#eeeeee;stroke-width:2.64583;stroke-linecap:round;stroke-linejoin:round;paint-order:stroke markers fill"
       d="M 1.3229166,1.3229166 H 0 L 2.6458331,3.96875 0,6.614583 l 1.3229166,2e-7 -1e-7,1.3229164 2.6458332,-2.6458333 2.645833,2.6458333 1e-7,-1.3229164 1.3229166,-2e-7 L 5.2916661,3.9687499 7.9374994,1.3229166 H 6.6145828 L 6.6145827,0 3.9687497,2.6458332 1.3229165,0 Z"
       id="path1"
       sodipodi:nodetypes="ccccccccccccccccc" /><path
       style="fill:#eeeeee;stroke-width:2.64583;stroke-linecap:round;stroke-linejoin:round;paint-order:stroke markers fill"
       id="path5"
       sodipodi:type="arc"
       sodipodi:cx="3.836458"
       sodipodi:cy="3.96875"
       sodipodi:rx="3.0427082"
       sodipodi:ry="3.175"
       sodipodi:start="0"
       sodipodi:end="6.2830886"
       sodipodi:open="true"
       sodipodi:arc-type="arc"
       d="M 6.8791661,3.96875 A 3.0427082,3.175 0 0 1 3.8365315,7.14375 3.0427082,3.175 0 0 1 0.79374981,3.9689035 3.0427082,3.175 0 0 1 3.8362373,0.79375006 3.0427082,3.175 0 0 1 6.8791661,3.968443" /><path
       style="fill:#eeeeee;stroke-width:2.64583;stroke-linecap:round;stroke-linejoin:round;paint-order:stroke markers fill"
       id="path6"
       sodipodi:type="arc"
       sodipodi:cx="3.9687498"
       sodipodi:cy="3.96875"
       sodipodi:rx="2.645833"
       sodipodi:ry="2.6458333"
       sodipodi:start="0"
       sodipodi:end="6.2830886"
       sodipodi:open="true"
       sodipodi:arc-type="arc"
       d="M 6.6145828,3.96875 A 2.645833,2.6458333 0 0 1 3.9688137,6.6145833 2.645833,2.6458333 0 0 1 1.3229167,3.9688779 2.645833,2.6458333 0 0 1 3.9685579,1.3229168 2.645833,2.6458333 0 0 1 6.6145828,3.9684941" /></g></svg>
