<?xml version="1.0" encoding="UTF-8" standalone="no"?>
<!-- Created with Inkscape (http://www.inkscape.org/) -->

<svg
   width="30"
   height="30"
   viewBox="0 0 7.9375002 7.9374998"
   version="1.1"
   id="svg1"
   xml:space="preserve"
   inkscape:version="1.4 (86a8ad7, 2024-10-11)"
   sodipodi:docname="Cross.svg"
   inkscape:export-filename="ManaBar.png"
   inkscape:export-xdpi="96"
   inkscape:export-ydpi="96"
   xmlns:inkscape="http://www.inkscape.org/namespaces/inkscape"
   xmlns:sodipodi="http://sodipodi.sourceforge.net/DTD/sodipodi-0.dtd"
   xmlns="http://www.w3.org/2000/svg"
   xmlns:svg="http://www.w3.org/2000/svg"><sodipodi:namedview
     id="namedview1"
     pagecolor="#505050"
     bordercolor="#eeeeee"
     borderopacity="1"
     inkscape:showpageshadow="0"
     inkscape:pageopacity="0"
     inkscape:pagecheckerboard="0"
     inkscape:deskcolor="#d1d1d1"
     inkscape:document-units="mm"
     showgrid="true"
     inkscape:zoom="22.627417"
     inkscape:cx="14.407301"
     inkscape:cy="13.236155"
     inkscape:window-width="1920"
     inkscape:window-height="1009"
     inkscape:window-x="-8"
     inkscape:window-y="-8"
     inkscape:window-maximized="1"
     inkscape:current-layer="layer3"><inkscape:grid
       id="grid1"
       units="mm"
       originx="0"
       originy="0"
       spacingx="0.26458333"
       spacingy="0.26458333"
       empcolor="#0099e5"
       empopacity="0.30196078"
       color="#0099e5"
       opacity="0.14901961"
       empspacing="5"
       enabled="true"
       visible="true" /></sodipodi:namedview><defs
     id="defs1"><pattern
       id="EMFhbasepattern"
       patternUnits="userSpaceOnUse"
       width="6"
       height="6"
       x="0"
       y="0" /><pattern
       id="EMFhbasepattern-1"
       patternUnits="userSpaceOnUse"
       width="6"
       height="6"
       x="0"
       y="0" /><pattern
       id="EMFhbasepattern-8"
       patternUnits="userSpaceOnUse"
       width="6"
       height="6"
       x="0"
       y="0" /><pattern
       id="EMFhbasepattern-5"
       patternUnits="userSpaceOnUse"
       width="6"
       height="6"
       x="0"
       y="0" /></defs><g
     inkscape:groupmode="layer"
     id="layer1"
     inkscape:label="a"
     style="opacity:0.154"><g
       inkscape:groupmode="layer"
       id="layer2"
       inkscape:label="a"
       style="display:none"><path
         style="display:inline;fill:#eeeeee;fill-opacity:1;stroke-width:2.64583;stroke-linecap:round;stroke-linejoin:round;paint-order:stroke markers fill"
         d="M 0.26458331,3.7041666 H 2.1166665 v 0.5291667 l -1.85208319,-1e-7 z"
         id="path4"
         sodipodi:nodetypes="ccccc" /><path
         style="display:inline;fill:#eeeeee;fill-opacity:1;stroke-width:2.64583;stroke-linecap:round;stroke-linejoin:round;paint-order:stroke markers fill"
         d="M 3.7041664,0.26458333 H 4.233333 V 2.1166666 H 3.7041664 Z"
         id="path5"
         sodipodi:nodetypes="ccccc" /><path
         style="display:inline;fill:#eeeeee;fill-opacity:1;stroke-width:2.64583;stroke-linecap:round;stroke-linejoin:round;paint-order:stroke markers fill"
         d="M 3.7041664,7.6729165 H 4.233333 V 5.8208332 H 3.7041664 Z"
         id="path6"
         sodipodi:nodetypes="ccccc" /><path
         style="display:inline;fill:#eeeeee;fill-opacity:1;stroke-width:2.64583;stroke-linecap:round;stroke-linejoin:round;paint-order:stroke markers fill"
         d="M 7.6729161,3.7041666 V 4.2333333 H 5.8208327 V 3.7041666 Z"
         id="path7"
         sodipodi:nodetypes="ccccc" /><path
         id="path3"
         style="display:inline;opacity:1;fill:#eeeeee;fill-opacity:1;stroke-width:2.64583;stroke-linecap:round;stroke-linejoin:round;paint-order:stroke markers fill"
         d="M 3.96875,0.79375 A 3.1749997,3.175 0 0 0 3.7041667,0.81287028 V 1.3435872 A 2.645833,2.6458333 0 0 1 3.96875,1.3229167 2.645833,2.6458333 0 0 1 4.2333333,1.3430705 V 0.81287028 A 3.1749997,3.175 0 0 0 3.96875,0.79375 Z m 0.5291667,0.0501261 v 0.539502 A 2.645833,2.6458333 0 0 1 6.5603231,3.4395833 H 7.0946574 A 3.1749997,3.175 0 0 0 4.4979167,0.8438761 Z M 3.4395833,0.8443929 A 3.1749997,3.175 0 0 0 0.84335937,3.4395833 H 1.3833781 A 2.645833,2.6458333 0 0 1 3.4395833,1.3844116 Z M 0.81287028,3.7041667 A 3.1749997,3.175 0 0 0 0.79375,3.96875 3.1749997,3.175 0 0 0 0.81287028,4.2333333 H 1.3435872 A 2.645833,2.6458333 0 0 1 1.3229167,3.96875 2.645833,2.6458333 0 0 1 1.3435872,3.7041667 Z m 5.78776042,0 A 2.645833,2.6458333 0 0 1 6.6145833,3.96875 2.645833,2.6458333 0 0 1 6.5939128,4.2333333 H 7.1246297 A 3.1749997,3.175 0 0 0 7.14375,3.96875 V 3.9682332 A 3.1749997,3.175 0 0 0 7.12463,3.7041667 Z m -5.75727133,0.79375 A 3.1749997,3.175 0 0 0 3.4395833,7.0931071 V 6.5530884 A 2.645833,2.6458333 0 0 1 1.3833781,4.4979167 Z m 5.71076253,0 A 2.645833,2.6458333 0 0 1 4.4979167,6.5530884 V 7.0931071 A 3.1749997,3.175 0 0 0 7.0941406,4.4979167 Z M 3.7041667,6.5939128 V 7.1246297 A 3.1749997,3.175 0 0 0 3.96875,7.14375 3.1749997,3.175 0 0 0 4.2333333,7.1246297 V 6.5939128 A 2.645833,2.6458333 0 0 1 3.96875,6.6145833 2.645833,2.6458333 0 0 1 3.7041667,6.5939128 Z" /><path
         id="path9"
         style="opacity:1;fill:#eeeeee;fill-opacity:1;stroke-width:2.64583;stroke-linecap:round;stroke-linejoin:round;paint-order:stroke markers fill"
         d="M 3.439583,1.653129 C 2.5512499,1.8575942 1.857594,2.5512501 1.6531288,3.4395832 l 0.7281207,-10e-8 v 1.0583333 l -0.7281207,2e-7 C 1.857594,5.3862497 2.5512499,6.0799056 3.439583,6.2843708 l -2e-7,-0.7281211 H 4.497916 l 4e-7,0.7281211 C 5.3862495,6.0799056 6.0799054,5.3862497 6.2843706,4.4979166 H 5.5562493 V 3.4395832 H 6.2843706 C 6.0799054,2.5512501 5.3862495,1.8575942 4.4979164,1.653129 l -4e-7,0.7281208 H 3.4395828 Z"
         sodipodi:nodetypes="ccccccccccccccccc" /></g><g
       inkscape:groupmode="layer"
       id="layer3"
       inkscape:label="b"><path
         id="path10"
         style="fill:#eeeeee;fill-opacity:1;stroke-width:2.64583;stroke-linecap:round;stroke-linejoin:round;paint-order:stroke markers fill"
         d="M 4.7625 0.90020345 L 4.7625 3.175 L 7.0347127 3.175 A 3.1749997 3.175 0 0 0 4.7625 0.90020345 z M 3.175 0.90072021 A 3.1749997 3.175 0 0 0 0.90278727 3.175 L 3.175 3.175 L 3.175 0.90072021 z M 0.90278727 4.7625 A 3.1749997 3.175 0 0 0 3.175 7.0367798 L 3.175 4.7625 L 0.90278727 4.7625 z M 4.7625 4.7625 L 4.7625 7.0367798 A 3.1749997 3.175 0 0 0 7.0347127 4.7625 L 4.7625 4.7625 z " /><rect
         style="fill:#eeeeee;fill-opacity:1;stroke-width:1.65836;stroke-linecap:round;stroke-linejoin:round;paint-order:stroke markers fill"
         id="rect11"
         width="2.9104166"
         height="0.52916664"
         x="0.26458332"
         y="3.7041667" /><rect
         style="fill:#eeeeee;fill-opacity:1;stroke-width:1.65836;stroke-linecap:round;stroke-linejoin:round;paint-order:stroke markers fill"
         id="rect12"
         width="0.52916664"
         height="2.9104166"
         x="3.7041664"
         y="0.26458332" /><rect
         style="fill:#eeeeee;fill-opacity:1;stroke-width:2.64583;stroke-linecap:round;stroke-linejoin:round;paint-order:stroke markers fill"
         id="rect13"
         width="2.9104164"
         height="0.52916664"
         x="4.7624993"
         y="3.7041667" /><rect
         style="fill:#eeeeee;fill-opacity:1;stroke-width:2.64583;stroke-linecap:round;stroke-linejoin:round;paint-order:stroke markers fill"
         id="rect14"
         width="0.52916664"
         height="2.9104166"
         x="3.7041664"
         y="4.7624998" /></g><path
       style="display:none;fill:#eeeeee;stroke-width:2.64583;stroke-linecap:round;stroke-linejoin:round;paint-order:stroke markers fill"
       d="M 2.6458331,3.96875 6.6145827,0 H 7.9374994 V 1.3229166 L 3.9687497,5.2916663 5.2916661,6.614583 H 2.6458331 L 1.3229165,7.9374996 H 0 V 6.614583 L 1.3229165,5.2916663 V 2.6458332 Z"
       id="path2" /><path
       style="display:none;opacity:1;fill:#eeeeee;stroke-width:2.64583;stroke-linecap:round;stroke-linejoin:round;paint-order:stroke markers fill"
       d="M 1.3229166,1.3229166 H 0 L 2.6458331,3.96875 0,6.614583 l 1.3229166,2e-7 -1e-7,1.3229164 2.6458332,-2.6458333 2.645833,2.6458333 1e-7,-1.3229164 1.3229166,-2e-7 L 5.2916661,3.9687499 7.9374994,1.3229166 H 6.6145828 L 6.6145827,0 3.9687497,2.6458332 1.3229165,0 Z"
       id="path1"
       sodipodi:nodetypes="ccccccccccccccccc" /></g></svg>
